HIERARCHY
ROOT Hips
{
  OFFSET 265.287 66.7526 -254.649
  CHANNELS 6 Xposition Yposition Zposition Zrotation Xrotation Yrotation
  JOINT LeftUpLeg
  {
    OFFSET 8.64259 1.95398 -2.38835
    CHANNELS 3 Zrotation Xrotation Yrotation
    JOINT LeftLeg
    {
      OFFSET 43.7702 0 0
      CHANNELS 3 Zrotation Xrotation Yrotation
      JOINT LeftFoot
      {
        OFFSET 40.6238 0 0
        CHANNELS 3 Zrotation Xrotation Yrotation
        JOINT LeftToeBase
        {
          OFFSET 12.7242 0 0
          CHANNELS 3 Zrotation Xrotation Yrotation
          End Site
          {
            OFFSET 0 0 0
          }
        }
      }
    }
  }
  JOINT RightUpLeg
  {
    OFFSET -8.2249 1.95398 -2.59336
    CHANNELS 3 Zrotation Xrotation Yrotation
    JOINT RightLeg
    {
      OFFSET 43.5653 0 0
      CHANNELS 3 Zrotation Xrotation Yrotation
      JOINT RightFoot
      {
        OFFSET 40.6238 0 0
        CHANNELS 3 Zrotation Xrotation Yrotation
        JOINT RightToeBase
        {
          OFFSET 12.7242 0 0
          CHANNELS 3 Zrotation Xrotation Yrotation
          End Site
          {
            OFFSET 0 0 0
          }
        }
      }
    }
  }
  JOINT Spine
  {
    OFFSET 0.165834 0.87714 6.61349
    CHANNELS 3 Zrotation Xrotation Yrotation
    JOINT Spine1
    {
      OFFSET 7.38963 1.71661e-005 0
      CHANNELS 3 Zrotation Xrotation Yrotation
      JOINT Spine2
      {
        OFFSET 11.9445 1.14441e-005 0
        CHANNELS 3 Zrotation Xrotation Yrotation
        JOINT Spine3
        {
          OFFSET 14.7254 4.19617e-005 0
          CHANNELS 3 Zrotation Xrotation Yrotation
          JOINT Spine4
          {
            OFFSET 10.9679 0 0
            CHANNELS 3 Zrotation Xrotation Yrotation
            JOINT RightShoulder
            {
              OFFSET 2.46616 -1.6653 3.69651
              CHANNELS 3 Zrotation Xrotation Yrotation
              JOINT RightArm
              {
                OFFSET 13.0012 0 0
                CHANNELS 3 Zrotation Xrotation Yrotation
                JOINT RightForeArm
                {
                  OFFSET 28.7848 1.52588e-005 0
                  CHANNELS 3 Zrotation Xrotation Yrotation
                  JOINT RightHand
                  {
                    OFFSET 26.5688 1.52588e-005 0
                    CHANNELS 3 Zrotation Xrotation Yrotation
                    End Site
                    {
                      OFFSET 0 0 0
                    }
                  }
                }
              }
            }
            JOINT LeftShoulder
            {
              OFFSET 2.38034 -1.29275 -3.7523
              CHANNELS 3 Zrotation Xrotation Yrotation
              JOINT LeftArm
              {
                OFFSET 16.3182 6.10351e-005 0
                CHANNELS 3 Zrotation Xrotation Yrotation
                JOINT LeftForeArm
                {
                  OFFSET 27.0901 0 0
                  CHANNELS 3 Zrotation Xrotation Yrotation
                  JOINT LeftHand
                  {
                    OFFSET 24.5451 1.52588e-005 0
                    CHANNELS 3 Zrotation Xrotation Yrotation
                    End Site
                    {
                      OFFSET 0 0 0
                    }
                  }
                }
              }
            }
            JOINT Neck
            {
              OFFSET 5.0226 -0.0266342 0
              CHANNELS 3 Zrotation Xrotation Yrotation
              JOINT Head
              {
                OFFSET 6.69364 2.86102e-005 0
                CHANNELS 3 Zrotation Xrotation Yrotation
                End Site
                {
                  OFFSET 0 0 0
                }
              }
            }
          }
        }
      }
    }
  }
}
MOTION
Frames:	18
Frame Time:	0.0416667
-66.7892 95.2345 38.1678 96.2368 -1.11577 91.5192 -176.098 17.109 87.9885 -6.30089 8.14017 1.63845 56.7561 -0.450828 5.9791 47.6177 -5.6643 2.15764 176.566 -1.17779 91.9859 -27.7048 -7.22146 -1.05932 70.3599 -0.102023 14.5972 32.6725 -0.656257 1.14809 0.272518 7.92622 -90.4183 11.022 0.348893 -0.865751 -0.649165 0.310471 -0.880287 -23.183 0.592976 -0.72088 -3.17033 0.592958 -0.720895 102 -46.4555 -82.4333 28.9369 -8.91501 -12.0915 -9.49956 -17.2219 -36.6794 -17.2737 -0.841444 0.466787 -81.1 -50.8626 91.9767 -35.3239 7.58407 2.19681 11.165 38.1063 -14.4276 -7.05436 -0.204343 -1.58666 -7.03653 4.30128 -3.66012 -23.5645 2.01701 14.5261 
-58.4163 94.3862 38.0287 95.8775 -3.913 92.1907 -174.969 16.6872 89.1329 -6.21211 5.37913 1.2799 54.2977 -1.5494 5.59131 45.6126 -4.94248 5.35929 176.477 -4.19837 91.5582 -30.4922 -8.77516 -1.95439 68.6828 0.467643 17.014 41.053 -1.76371 1.94669 0.537564 7.76808 -90.2709 11.3406 0.943344 -0.634321 -0.330192 0.914516 -0.67523 -22.8677 1.09039 -0.321449 -2.85507 1.09038 -0.321458 101.63 -46.9988 -83.0308 29.6935 -9.46075 -12.1796 -10.1736 -17.846 -37.0722 -16.0002 -0.712785 -0.0329078 -80.3935 -51.8502 93.0835 -33.8617 6.23403 3.73875 12.1558 34.921 -16.0953 -7.43719 -0.230016 -1.23077 -7.71454 4.72022 -3.25689 -23.7137 2.30709 14.8744 
-49.3593 93.8556 37.5855 96.4489 -3.75161 91.2138 -174.893 16.7385 88.124 -15.8484 9.33863 0.805146 48.6812 -4.29889 11.3061 39.6676 -3.27522 -2.32246 174.074 -6.60125 87.7594 -34.01 -8.9326 -1.99961 55.6877 4.58807 25.1539 50.3086 -2.45195 9.74077 0.552547 7.56958 -89.9003 11.7369 1.14578 0.0761264 0.0664674 1.14802 0.0256105 -22.4725 1.06995 0.417008 -2.45987 1.06992 0.416994 101.683 -47.802 -82.9385 32.0042 -8.44539 -8.56327 -11.4855 -22.4274 -34.4047 -13.5674 -0.589346 -0.14255 -79.785 -51.6913 93.983 -31.6389 5.29033 2.38779 12.5898 30.6767 -17.2917 -4.6857 -0.161818 -0.685991 -8.52091 4.74731 -4.04242 -25.1587 1.99019 15.8014 
-41.7811 93.278 36.7641 98.3353 -2.56808 89.9289 -174.956 16.1096 85.7459 -28.731 10.7478 0.424527 57.9113 -0.608576 16.9273 34.0292 -1.1928 -6.78601 172.396 0.390384 83.2235 -51.7837 -15.3106 -2.45606 40.3872 9.13862 25.4683 36.0571 -0.978509 4.31661 0.496221 7.62856 -89.5986 11.6131 1.17524 0.679437 -0.0575068 1.20398 0.627045 -22.5942 0.916725 1.00124 -2.58149 0.916716 1.00123 101.329 -47.5456 -83.5094 34.3432 -6.25584 -5.69414 -10.1897 -27.4035 -27.674 -10.2749 -0.507425 0.602903 -79.9581 -51.6452 93.7238 -28.4176 7.07971 -3.81887 12.5912 28.7474 -18.6462 -2.15443 -0.0797167 0.467481 -9.18781 5.25249 -3.27648 -25.117 2.37455 16.1424 
-34.7804 93.5676 36.128 100.88 0.940998 90.1285 -175.447 10.463 85.5865 -32.6536 12.1856 1.37 64.1975 2.73163 17.0347 33.4081 -0.925504 -7.14481 172.328 9.07983 83.5338 -67.5107 -15.2288 -2.57677 41.3646 8.76156 20.4606 37.4657 -1.18475 -1.92097 0.187176 7.89825 -89.6031 11.075 0.556737 0.73614 -0.596002 0.588625 0.710908 -23.1298 0.309791 0.869416 -3.1172 0.309764 0.869409 101.186 -47.3821 -83.7417 35.2001 -3.6691 -6.29518 -6.2623 -31.5979 -17.8754 -8.74474 -0.476692 1.22799 -80.5062 -50.6197 92.8574 -25.5593 8.75517 -13.2794 12.6019 26.8326 -19.6543 -0.648111 -0.0370762 -0.818405 -11.4013 6.48328 -1.41165 -23.5154 3.732 16.1567 
-28.1744 94.3619 35.6411 101.98 6.36415 90.2569 -175.539 4.21945 86.3862 -31.7062 17.2607 2.31578 66.7878 4.92773 17.4931 34.512 -1.36421 -6.81419 171.554 15.3413 84.3805 -66.1399 -13.2457 -1.57234 49.3263 5.82178 18.512 40.6407 -1.74311 3.62646 -0.198831 7.91926 -89.6967 11.0354 -0.255125 0.628259 -0.635667 -0.227237 0.638872 -23.1702 -0.432147 0.522544 -3.15751 -0.432145 0.522542 101.38 -47.463 -83.4293 35.4552 -1.0678 -3.22072 -5.04764 -31.4335 -14.5047 -8.04939 -0.486621 1.97418 -80.2577 -49.1965 93.1687 -23.9305 9.89867 -19.0208 15.5515 22.8776 -27.0397 2.2376 0.0192397 -1.68614 -12.6886 6.39829 -1.00682 -24.3024 3.49697 16.2313 
-21.9284 94.9671 35.2998 101.278 11.1265 88.8229 -176.276 -0.391387 86.4314 -28.8366 21.4655 3.10653 67.0704 6.11119 18.1567 36.7138 -2.19644 -6.6769 172.802 18.1797 83.5308 -49.8031 -9.62661 -0.963505 55.8418 3.86644 21.0658 45.3981 -2.27508 4.86095 -0.426087 7.75551 -89.5817 11.365 -0.652717 0.897841 -0.30609 -0.612551 0.925686 -22.8411 -0.892346 0.660176 -2.82842 -0.89238 0.66017 101.712 -48.2782 -82.887 34.9557 0.594729 0.207135 -4.77022 -30.0194 -13.7765 -8.12762 -0.525381 2.49391 -80.1998 -47.9475 93.2012 -23.0513 10.1719 -20.2097 19.084 16.5679 -38.2374 2.10078 -0.0246059 -2.65538 -12.343 6.88823 -1.16697 -24.0384 3.96663 16.6146 
-16.0684 95.3153 35.3439 100.371 15.8982 87.4688 -176.727 -3.64128 86.8106 -27.6105 24.6742 4.24453 66.9228 6.28029 15.9512 39.1319 -3.11295 -5.56742 175.844 16.1076 82.4272 -24.7451 -6.13705 -1.69718 55.6258 3.81407 23.9546 39.6447 -1.53459 0.787464 -0.500049 7.61322 -89.4446 11.6501 -0.73419 1.18331 -0.0212472 -0.681433 1.21447 -22.5553 -1.05588 0.907973 -2.54261 -1.05588 0.907974 101.843 -48.7737 -82.6751 35.7478 2.31488 2.39682 -4.85834 -29.0018 -13.0152 -8.12087 -0.523332 2.47111 -79.5486 -47.4748 94.1987 -21.7545 10.8307 -20.5251 20.1742 12.2406 -45.504 2.06234 -0.0732688 -3.95665 -12.4326 7.47283 -1.38262 -24.3221 4.23964 18.146 
-9.93226 95.3046 35.4818 99.7178 21.269 85.634 -177.472 -6.17788 87.3813 -27.7726 27.6356 5.86101 67.0422 5.98811 12.0875 41.2014 -3.8517 -3.61528 177.74 15.0664 81.2853 -8.98153 -11.2808 -4.91187 51.9 5.98486 26.9316 29.0272 -0.216492 1.60656 -0.425579 7.56941 -89.3236 11.7364 -0.528807 1.40394 0.0648051 -0.466512 1.42585 -22.4666 -0.926289 1.18016 -2.45397 -0.926272 1.18015 101.947 -48.9923 -82.5103 35.9305 2.96665 3.57827 -6.0964 -30.3819 -14.0839 -6.12221 -0.375362 2.13845 -79.7524 -48.0291 93.9005 -20.7662 10.9854 -20.2324 19.8791 12.249 -45.2768 0.467972 -0.0638936 -3.2959 -12.6918 8.15077 -1.43124 -23.3633 4.96019 18.8527 
-3.03426 94.7253 35.7785 99.3497 27.8483 84.5623 -179.078 -6.97409 88.6182 -32.4779 31.3288 9.45193 67.5904 5.78074 9.22275 44.5118 -4.82973 0.32724 177.615 14.88 80.1533 -10.399 -16.3085 -5.37201 51.8983 5.80587 26.6431 36.1313 -1.00212 -0.395457 -0.355757 7.55517 -89.3635 11.7634 -0.408623 1.3123 0.0917985 -0.35047 1.329 -22.4396 -0.784116 1.12886 -2.42698 -0.784099 1.12886 101.826 -49.0863 -82.7013 35.5322 2.32762 2.96753 -5.39126 -30.355 -13.6163 -7.42154 -0.497679 2.81447 -79.4996 -48.1 94.2951 -22.41 9.28489 -18.7523 19.7471 18.0418 -37.7827 2.60105 -0.0140068 -2.59054 -12.5891 9.35424 -2.19734 -22.2618 6.20679 19.9871 
3.7921 93.9555 35.9869 100.07 33.6622 84.7647 176.799 -4.60722 93.0883 -43.0832 28.2377 11.9324 64.0149 3.92973 6.16715 49.6748 -6.454 0.222444 176.612 14.7438 81.3093 -18.1291 -17.4052 -3.63567 47.7849 7.29987 21.6409 46.6578 -2.53874 1.34961 -0.158316 7.63229 -89.7785 11.6166 -0.211077 0.462734 -0.054317 -0.190496 0.471568 -22.5898 -0.340386 0.377908 -2.57712 -0.3404 0.3779 101.4 -48.0199 -83.3874 34.0876 0.586668 1.42798 -4.43756 -28.7677 -13.4373 -7.45017 -0.474004 2.31572 -79.3191 -50.604 94.649 -22.9616 5.86703 -15.889 12.745 20.9791 -21.1102 5.26949 0.240539 0.347499 -12.1891 11.0235 -2.03797 -22.2602 7.49586 22.333 
8.82661 93.907 36.1126 99.6291 40.1726 86.2547 172.953 6.28533 89.5308 -58.583 15.8961 9.30224 54.5191 0.897052 9.57577 48.5358 -6.41737 -4.53018 175.475 15.3522 83.2573 -26.1004 -12.1424 -1.82287 54.8185 5.9954 16.9495 37.1892 -1.25941 1.20682 0.0208404 7.8034 -90.2612 11.2661 -0.0801373 -0.512597 -0.404906 -0.102612 -0.508577 -22.9392 0.0776111 -0.512982 -2.92658 0.0776246 -0.512977 101.221 -47.5261 -83.6831 30.4467 -2.80042 -1.07231 -3.69695 -23.299 -17.0642 -12.2767 -0.696755 1.54356 -80.4236 -49.9258 92.9477 -27.2645 2.4838 -11.8223 8.40921 23.1556 -7.34334 5.8083 0.376008 2.2498 -8.48098 11.9215 -5.24195 -22.8775 8.09687 24.785 
12.6485 94.4915 35.935 99.3341 46.7976 84.8477 175.249 15.3104 90.267 -62.2188 10.0368 5.74764 57.9627 3.1453 11.1272 46.2552 -5.6553 -5.02149 174.644 13.9322 83.0667 -28.5036 -8.05178 -1.23682 58.5856 5.1771 13.6067 35.6696 -1.04229 0.847123 0.0746637 8.03386 -90.3563 10.8056 -0.0157055 -0.707092 -0.865574 -0.0468412 -0.705712 -23.3993 0.19751 -0.679124 -3.38662 0.197527 -0.679129 102.15 -47.3834 -82.1888 27.4749 -4.2202 -3.32451 -3.60251 -14.8379 -23.6909 -15.0977 -0.890692 1.69777 -80.9292 -49.2574 92.1428 -28.8858 2.55743 -6.28528 7.81102 30.2477 -5.93061 -0.882372 -0.0236176 0.772093 -5.26329 11.2557 -9.293 -21.3863 7.90929 26.7266 
15.7815 95.502 35.1907 96.867 53.7478 85.0618 -176.729 17.7194 86.5483 -48.843 10.6383 1.19514 64.1633 5.27102 9.44587 49.5924 -6.61967 -2.42892 173.586 11.4708 82.4194 -25.3832 -1.41153 -0.450782 59.799 5.69029 14.4038 34.6213 -0.940239 1.48941 0.115296 7.93219 -90.3772 11.009 0.0547388 -0.75613 -0.66213 0.0214233 -0.757818 -23.1957 0.279459 -0.704726 -3.18306 0.279447 -0.704731 102.665 -46.8716 -81.3534 27.2057 -4.48595 -2.89885 -3.77409 -9.67429 -29.7309 -14.5788 -0.624733 -0.230566 -80.1438 -48.4808 93.3118 -30.997 2.35184 -1.57102 9.56253 32.0659 -9.2043 -5.15023 -0.196053 -0.11058 -3.72651 9.8455 -9.63494 -20.4735 7.21413 24.379 
18.442 96.2697 33.447 93.0743 61.5153 87.2295 -172.872 13.2305 82.6775 -26.5397 3.62573 -2.53829 64.1339 4.65022 8.00841 52.3786 -6.93046 3.3722 173.231 8.21541 82.5828 -21.0331 7.5254 -0.41007 60.1564 6.60514 17.1095 33.8562 -0.804751 0.804437 0.132872 7.67985 -90.4229 11.5139 0.0666531 -0.84817 -0.157346 0.0292475 -0.850294 -22.6906 0.318468 -0.788938 -2.6779 0.318462 -0.788943 102.974 -46.687 -80.8494 27.1626 -5.05695 -2.09761 -4.52521 -9.40062 -32.3396 -12.7042 -0.472763 -0.867133 -80.0053 -48.5992 93.5314 -33.2346 1.23824 1.01863 10.9228 28.8296 -11.6196 -4.27064 -0.148769 -0.925023 -1.95095 7.95894 -9.07731 -19.6701 5.80381 22.6679 
20.8676 96.253 31.2662 88.6314 68.719 92.509 -175.861 9.02797 82.0346 -13.4691 4.99562 -1.4705 60.6552 4.54235 16.52 42.327 -4.11975 -0.367279 172.858 6.05111 84.6678 -20.3725 13.1102 0.707863 60.3248 6.38774 16.3845 37.4996 -1.27308 0.478849 0.252815 7.4825 -90.6096 11.9085 0.215536 -1.23876 0.236968 0.16082 -1.24704 -22.2943 0.57786 -1.11673 -2.28163 0.57785 -1.11674 103.238 -47.884 -80.4463 25.3408 -5.82778 -4.0991 -5.13259 -13.8605 -28.3393 -11.0553 -0.401186 -1.00654 -79.8593 -49.0508 93.7737 -35.1243 1.57061 0.462597 13.3059 28.0502 -16.2611 -6.18002 -0.171632 -1.92593 0.474527 5.46323 -8.95943 -17.929 4.09662 20.519 
23.2517 96.1795 28.4738 89.3547 75.3631 92.3236 -176.763 6.69034 82.7095 -14.2206 10.2589 -0.408535 62.343 5.15817 19.001 31.9952 -0.889136 -1.30218 171.256 3.9473 85.4979 -23.6474 16.1364 2.52935 59.1039 5.18548 13.7825 46.1458 -2.48407 0.490078 0.2381 7.46024 -90.4933 11.9534 0.24093 -1.00991 0.282105 0.196256 -1.01955 -22.2507 0.53329 -0.890823 -2.23801 0.5333 -0.890833 103.056 -49.2139 -80.7628 26.9207 -3.10256 -6.02897 -6.21802 -21.4947 -22.6505 -11.0892 -0.54588 0.563261 -80.066 -49.0287 93.4557 -34.4328 4.5883 -0.497095 15.7523 27.0272 -23.2675 -7.8738 -0.16961 -2.72389 0.358509 3.55241 -10.0363 -15.9657 2.8989 18.7171 
24.6165 95.5416 25.2842 93.0603 81.8696 89.3662 -177.616 6.20931 83.2328 -20.0428 14.8646 1.38033 66.3322 6.43489 19.2174 31.4284 -0.52043 -3.36107 166.48 6.75872 83.4544 -34.7796 9.47511 4.87445 52.3824 5.35341 15.5218 56.9544 -4.26816 -1.65337 0.062188 7.46095 -90.4181 11.9511 -0.0733819 -0.826509 0.279921 -0.109683 -0.82248 -22.2532 0.178396 -0.810355 -2.24052 0.178405 -0.810358 103.103 -49.1788 -80.6878 30.0201 -0.908568 -4.52784 -7.45964 -22.1342 -23.1679 -11.61 -0.562706 0.464666 -80.6791 -48.9931 92.5116 -33.3715 6.70011 -3.50899 16.7106 24.928 -26.5784 -4.16224 -0.105848 -2.61471 0.0515409 2.3398 -9.97944 -15.3865 1.8929 17.4177 
